#!OML:ASF X:\für Bonn\!DataBase\2005_08_12_Daniel\c3d\Daniel.ASF
:FULLY-SPECIFIED
:DEGREES
136
root 0.911911 9.1645 0.938832 155.691 -18.2185 -183.762
lowerback 80.9216 -8.18609 17.8865
upperback 9.4619 -4.62203 1.02949
thorax -8.62624 -6.22087 -2.58136
lowerneck 8.96484 -8.93846 -3.2122
upperneck 9.24222 -13.4868 8.13436
head 2.33094 -6.89377 3.23628
rclavicle -4.77083e-014 -3.02153e-014
rhumerus 12.8499 15.5237 -51.2605
rradius 31.9418
rwrist -23.0841
rhand -19.191 6.28882
rfingers 7.12502
rthumb 7.1208 -23.5714
lclavicle -4.77083e-014 -3.02153e-014
lhumerus -27.2965 2.96289 87.6963
lradius 52.5912
lwrist -4.85933
lhand -12.1716 -7.67505
lfingers 7.12502
lthumb 13.8917 21.841
rfemur -48.6388 -55.1533 -26.651
rtibia 139.792
rfoot -30.4412 35.3636
rtoes -18.9349
lfemur -64.48 26.9904 -10.9517
ltibia 137.536
lfoot -34.5398 -32.3485
ltoes -0.763063
137
root 0.915862 9.01886 0.917864 155.063 -18.4051 -183.615
lowerback 81.2877 -8.39982 18.0868
upperback 9.37471 -4.64818 1.09364
thorax -8.6441 -6.27265 -2.5328
lowerneck 8.93459 -9.00242 -3.18082
upperneck 9.4544 -13.6101 8.09475
head 2.41157 -6.95361 3.20901
rclavicle -1.27222e-014 -2.70347e-014
rhumerus 12.6822 15.5861 -51.2609
rradius 31.6378
rwrist -22.8909
rhand -19.3741 6.35352
rfingers 7.12502
rthumb 6.94405 -23.5126
lclavicle -1.27222e-014 -2.70347e-014
lhumerus -27.4615 3.14678 87.7644
lradius 52.4309
lwrist -4.99429
lhand -12.0371 -7.52158
lfingers 7.12502
lthumb 14.0212 21.9855
rfemur -45.5552 -57.6575 -31.4557
rtibia 140.972
rfoot -31.3444 37.1142
rtoes -18.9977
lfemur -64.7795 28.9294 -9.73645
ltibia 138.767
lfoot -34.6582 -33.7452
ltoes -0.684073
138
root 0.919332 8.8734 0.896108 154.416 -18.5791 -183.477
lowerback 81.6215 -8.58917 18.2774
upperback 9.3005 -4.66172 1.14868
thorax -8.65195 -6.31674 -2.49984
lowerneck 8.89021 -9.08642 -3.09284
upperneck 9.65417 -13.7521 8.0393
head 2.48605 -7.0203 3.16578
rclavicle 2.38542e-014 8.82604e-014
rhumerus 12.4254 15.4959 -51.3896
rradius 31.346
rwrist -22.6089
rhand -19.5555 6.45859
rfingers 7.12502
rthumb 6.7689 -23.4132
lclavicle 2.38542e-014 8.82604e-014
lhumerus -27.6969 3.33919 87.8297
lradius 52.3149
lwrist -5.15247
lhand -11.9313 -7.41084
lfingers 7.12502
lthumb 14.1232 22.0892
rfemur -41.7128 -59.9972 -37.1321
rtibia 142.156
rfoot -32.4312 38.8656
rtoes -19.1961
lfemur -64.9703 31.1003 -8.37265
ltibia 139.992
lfoot -34.9214 -35.2177
ltoes -0.647484
139
root 0.922497 8.72836 0.873959 153.73 -18.7371 -183.295
lowerback 81.9464 -8.78494 18.4648
upperback 9.22608 -4.68942 1.20045
thorax -8.66181 -6.36859 -2.46293
lowerneck 8.86404 -9.14022 -3.01925
upperneck 9.8775 -13.8616 7.98807
head 2.56465 -7.0728 3.12744
rclavicle -8.26944e-014 -7.23576e-014
rhumerus 12.1712 15.5029 -51.5435
rradius 31.097
rwrist -22.3154
rhand -19.8292 6.49449
rfingers 7.12502
rthumb 6.50472 -23.3856
lclavicle -8.26944e-014 -7.23576e-014
lhumerus -27.9381 3.55723 87.8905
lradius 52.1381
lwrist -5.30693
lhand -11.9211 -7.37659
lfingers 7.12502
lthumb 14.1331 22.1227
rfemur -37.0076 -62.037 -43.6617
rtibia 143.303
rfoot -33.6709 40.601
rtoes -19.2576
lfemur -65.0114 33.523 -6.70284
ltibia 141.211
lfoot -35.2635 -36.8847
ltoes -0.417824
140
root 0.925238 8.58521 0.852845 153.074 -18.8938 -183.123
lowerback 82.2241 -8.96862 18.6343
upperback 9.14412 -4.71021 1.23888
thorax -8.69049 -6.41025 -2.43962
lowerneck 8.89278 -9.20108 -2.91532
upperneck 10.0996 -13.9802 7.91474
head 2.62977 -7.13133 3.0796
rclavicle 3.18055e-015 3.81667e-014
rhumerus 11.8435 15.5301 -51.7218
rradius 30.8855
rwrist -22.1325
rhand -20.1177 6.53862
rfingers 7.12502
rthumb 6.22617 -23.3499
lclavicle 3.18055e-015 3.81667e-014
lhumerus -28.2183 3.65228 87.9537
lradius 51.9519
lwrist -5.40126
lhand -12.0001 -7.35745
lfingers 7.12502
lthumb 14.0569 22.1472
rfemur -31.6866 -63.7096 -50.8935
rtibia 144.438
rfoot -35.0202 42.2676
rtoes -19.3946
lfemur -65.0071 36.0235 -4.92295
ltibia 142.413
lfoot -35.6911 -38.5584
ltoes -0.378156
141
root 0.927634 8.44541 0.829791 152.408 -19.0542 -182.958
lowerback 82.4583 -9.12178 18.7795
upperback 9.0867 -4.73357 1.29198
thorax -8.69793 -6.45505 -2.39387
lowerneck 8.94778 -9.25169 -2.83615
upperneck 10.3067 -14.0884 7.86672
head 2.68882 -7.18647 3.0466
rclavicle -1.60618e-013 -4.69132e-014
rhumerus 11.4662 15.5795 -51.9026
rradius 30.7665
rwrist -21.9816
rhand -20.4336 6.48101
rfingers 7.12502
rthumb 5.92117 -23.4163
lclavicle -1.60618e-013 -4.69132e-014
lhumerus -28.502 3.72225 88.0471
lradius 51.7568
lwrist -5.43865
lhand -12.1515 -7.30716
lfingers 7.12502
lthumb 13.911 22.2075
rfemur -25.6901 -64.9336 -58.861
rtibia 145.535
rfoot -36.4623 43.8781
rtoes -19.346
lfemur -64.775 38.6909 -2.89797
ltibia 143.568
lfoot -36.3051 -40.3347
ltoes -0.228509
